{
	"asset":{
		"generator":"Khronos glTF Blender I/O v3.6.28",
		"version":"2.0"
	},
	"scene":0,
	"scenes":[
		{
			"name":"Scene",
			"nodes":[
				0,
				1,
				2
			]
		}
	],
	"nodes":[
		{
			"mesh":0,
			"name":"donut",
			"translation":[
				0,
				-0.012820901349186897,
				0
			]
		},
		{
			"mesh":1,
			"name":"icing",
			"translation":[
				0,
				-0.012820901349186897,
				0
			]
		},
		{
			"mesh":2,
			"name":"Plane",
			"scale":[
				0.2684120833873749,
				0.2684120833873749,
				0.2684120833873749
			],
			"translation":[
				0,
				-0.03013657033443451,
				0
			]
		}
	],
	"materials":[
		{
			"doubleSided":true,
			"name":"Material.001",
			"pbrMetallicRoughness":{
				"baseColorFactor":[
					0.6265051960945129,
					0.2691701054573059,
					0.03806181624531746,
					1
				],
				"metallicFactor":0,
				"roughnessFactor":0.5
			}
		},
		{
			"doubleSided":true,
			"name":"Material",
			"pbrMetallicRoughness":{
				"baseColorFactor":[
					1,
					0.4988364279270172,
					0.046096138656139374,
					1
				],
				"metallicFactor":0,
				"roughnessFactor":0.1071428507566452
			}
		},
		{
			"doubleSided":true,
			"name":"Material.002",
			"pbrMetallicRoughness":{
				"baseColorFactor":[
					0.7714467644691467,
					0.34874019026756287,
					0.8000000715255737,
					1
				],
				"metallicFactor":0,
				"roughnessFactor":0.5
			}
		}
	],
	"meshes":[
		{
			"name":"Torus",
			"primitives":[
				{
					"attributes":{
						"POSITION":0,
						"NORMAL":1,
						"TEXCOORD_0":2
					},
					"indices":3,
					"material":0
				}
			]
		},
		{
			"name":"Torus.001",
			"primitives":[
				{
					"attributes":{
						"POSITION":4,
						"NORMAL":5,
						"TEXCOORD_0":6
					},
					"indices":7,
					"material":1
				}
			]
		},
		{
			"name":"Plane",
			"primitives":[
				{
					"attributes":{
						"POSITION":8,
						"NORMAL":9,
						"TEXCOORD_0":10
					},
					"indices":11,
					"material":2
				}
			]
		}
	],
	"accessors":[
		{
			"bufferView":0,
			"componentType":5126,
			"count":697,
			"max":[
				0.04934272542595863,
				0.020152229815721512,
				0.0478876493871212
			],
			"min":[
				-0.04868397116661072,
				-0.022633709013462067,
				-0.04788004979491234
			],
			"type":"VEC3"
		},
		{
			"bufferView":1,
			"componentType":5126,
			"count":697,
			"type":"VEC3"
		},
		{
			"bufferView":2,
			"componentType":5126,
			"count":697,
			"type":"VEC2"
		},
		{
			"bufferView":3,
			"componentType":5123,
			"count":3840,
			"type":"SCALAR"
		},
		{
			"bufferView":4,
			"componentType":5126,
			"count":41970,
			"max":[
				0.05148269981145859,
				0.02529098652303219,
				0.04960804060101509
			],
			"min":[
				-0.05004817619919777,
				-0.01685229502618313,
				-0.04852336645126343
			],
			"type":"VEC3"
		},
		{
			"bufferView":5,
			"componentType":5126,
			"count":41970,
			"type":"VEC3"
		},
		{
			"bufferView":6,
			"componentType":5126,
			"count":41970,
			"type":"VEC2"
		},
		{
			"bufferView":7,
			"componentType":5123,
			"count":251100,
			"type":"SCALAR"
		},
		{
			"bufferView":8,
			"componentType":5126,
			"count":4,
			"max":[
				1,
				0,
				1
			],
			"min":[
				-1,
				0,
				-1
			],
			"type":"VEC3"
		},
		{
			"bufferView":9,
			"componentType":5126,
			"count":4,
			"type":"VEC3"
		},
		{
			"bufferView":10,
			"componentType":5126,
			"count":4,
			"type":"VEC2"
		},
		{
			"bufferView":11,
			"componentType":5123,
			"count":6,
			"type":"SCALAR"
		}
	],
	"bufferViews":[
		{
			"buffer":0,
			"byteLength":8364,
			"byteOffset":0,
			"target":34962
		},
		{
			"buffer":0,
			"byteLength":8364,
			"byteOffset":8364,
			"target":34962
		},
		{
			"buffer":0,
			"byteLength":5576,
			"byteOffset":16728,
			"target":34962
		},
		{
			"buffer":0,
			"byteLength":7680,
			"byteOffset":22304,
			"target":34963
		},
		{
			"buffer":0,
			"byteLength":503640,
			"byteOffset":29984,
			"target":34962
		},
		{
			"buffer":0,
			"byteLength":503640,
			"byteOffset":533624,
			"target":34962
		},
		{
			"buffer":0,
			"byteLength":335760,
			"byteOffset":1037264,
			"target":34962
		},
		{
			"buffer":0,
			"byteLength":502200,
			"byteOffset":1373024,
			"target":34963
		},
		{
			"buffer":0,
			"byteLength":48,
			"byteOffset":1875224,
			"target":34962
		},
		{
			"buffer":0,
			"byteLength":48,
			"byteOffset":1875272,
			"target":34962
		},
		{
			"buffer":0,
			"byteLength":32,
			"byteOffset":1875320,
			"target":34962
		},
		{
			"buffer":0,
			"byteLength":12,
			"byteOffset":1875352,
			"target":34963
		}
	],
	"buffers":[
		{
			"byteLength":1875364,
			"uri":"donut%20trauma.bin"
		}
	]
}
